<svg xmlns="http://www.w3.org/2000/svg" width="800" height="1200" viewBox="0 0 800 1200"><rect width="800" height="1200" fill="#c9d8cd"/><path d="M0 550 202 290l180 340 418-370v940H0" fill="#809b7c"/><path d="M0 772 421 554l379 138v508H0" fill="#365f48"/><path d="m213 1200 155-418 71-53 7 74-87 397" fill="#c9b493"/><path d="m559 0-55 1200h57L610 0" fill="#4c4432"/><g fill="#315341"><ellipse cx="674" cy="208" rx="340" ry="93"/><ellipse cx="470" cy="432" rx="310" ry="60"/><ellipse cx="675" cy="640" rx="277" ry="49"/></g><path d="m173 771 70-34 64 19-24 43-93 2z" fill="#ad5a39"/><path d="m206 794-9 38m70-34 4 39" stroke="#483c2c" stroke-width="7"/></svg>
